# xmcd
#
# Track frame offsets: 
#        150
#        18816
#        36904
#        57164
#        76550
#        95374
#        111646
#        134105
#        155257
#        177331
#        200258
#
# Disc length: 2958 seconds
#
# Revision: 0
# Processed by: cddbd v1.5.1PL0 Copyright (c) Steve Scherf et al.
# Submitted via: ExactAudioCopy v0.95b2
#
DISCID=890b8c0b
DTITLE=冯乔 - 一个DJ两个女人
DYEAR=2005
DGENRE=Blues
TTITLE0=酒醉的探戈
TTITLE1=小村之恋
TTITLE2=DJ情歌
TTITLE3=谢谢你常记得我
TTITLE4=下辈子别再做女人
TTITLE5=又见炊烟
TTITLE6=女人花
TTITLE7=一代芳华
TTITLE8=匆匆之间
TTITLE9=原乡人
TTITLE10=亲密爱人
EXTD=
EXTT0=
EXTT1=
EXTT2=
EXTT3=
EXTT4=
EXTT5=
EXTT6=
EXTT7=
EXTT8=
EXTT9=
EXTT10=
PLAYORDER=
